<?xml version="1.0" encoding="UTF-8" standalone="no"?><!DOCTYPE svg PUBLIC "-//W3C//DTD SVG 1.1//EN" "http://www.w3.org/Graphics/SVG/1.1/DTD/svg11.dtd"><svg width="100%" height="100%" viewBox="0 0 142 142" version="1.1" xmlns="http://www.w3.org/2000/svg" xmlns:xlink="http://www.w3.org/1999/xlink" xml:space="preserve" xmlns:serif="http://www.serif.com/" style="fill-rule:evenodd;clip-rule:evenodd;stroke-linecap:round;stroke-linejoin:round;stroke-miterlimit:1.5;"><path d="M18.141,43.169l19.385,-0.507c0,0 10.961,0.203 17.863,9.641c6.901,9.439 8.525,12.585 8.525,12.585" style="fill:none;stroke:#1db954;stroke-width:7.28px;"/><path d="M79.217,84.375l9.744,13.295c0,0 8.119,9.744 23.444,7.105" style="fill:none;stroke:#1db954;stroke-width:7.28px;"/><path d="M18.141,104.641l20.457,0.158c0,0 12.211,0 20.14,-13.638l29.179,-39.011c0,0 7.136,-10.784 23.628,-8.722" style="fill:none;stroke:#1db954;stroke-width:7.28px;"/><path d="M126.769,104.323l-14.272,10.308l0,-20.615l14.272,10.307Z" style="fill:#1db954;stroke:#1db954;stroke-width:7.28px;"/><path d="M126.928,42.635l-14.272,10.308l0,-20.616l14.272,10.308Z" style="fill:#1db954;stroke:#1db954;stroke-width:7.28px;"/><circle cx="70.866" cy="125.93" r="11.299" style="fill:#1db954;"/></svg>