<?xml version="1.0" encoding="UTF-8" standalone="no"?><!DOCTYPE svg PUBLIC "-//W3C//DTD SVG 1.1//EN" "http://www.w3.org/Graphics/SVG/1.1/DTD/svg11.dtd"><svg width="100%" height="100%" viewBox="0 0 24 24" version="1.1" xmlns="http://www.w3.org/2000/svg" xmlns:xlink="http://www.w3.org/1999/xlink" xml:space="preserve" xmlns:serif="http://www.serif.com/" style="fill-rule:evenodd;clip-rule:evenodd;stroke-linejoin:round;stroke-miterlimit:2;"><path d="M12,0c-6.627,0 -12,5.373 -12,12c0,6.627 5.373,12 12,12c6.627,0 12,-5.373 12,-12c0,-6.627 -5.373,-12 -12,-12Zm0,2c5.514,0 10,4.486 10,10c0,5.514 -4.486,10 -10,10c-5.514,0 -10,-4.486 -10,-10c0,-5.514 4.486,-10 10,-10Zm0,3c-3.866,0 -7,3.134 -7,7c0,3.866 3.134,7 7,7c3.866,0 7,-3.134 7,-7c0,-3.866 -3.134,-7 -7,-7Zm3.21,10.096c-0.125,0.207 -0.394,0.271 -0.6,0.146c-1.643,-1.005 -3.712,-1.232 -6.149,-0.675c-0.235,0.053 -0.469,-0.094 -0.522,-0.328c-0.054,-0.235 0.092,-0.469 0.328,-0.523c2.666,-0.609 4.954,-0.347 6.799,0.78c0.205,0.126 0.27,0.395 0.144,0.6Zm0.857,-1.906c-0.158,0.257 -0.494,0.338 -0.751,0.18c-1.881,-1.156 -4.75,-1.491 -6.975,-0.816c-0.289,0.088 -0.594,-0.075 -0.681,-0.363c-0.087,-0.289 0.076,-0.593 0.364,-0.681c2.542,-0.771 5.703,-0.398 7.863,0.93c0.257,0.158 0.338,0.494 0.18,0.75Zm0.074,-1.984c-2.257,-1.34 -5.979,-1.464 -8.133,-0.81c-0.345,0.105 -0.711,-0.09 -0.816,-0.436c-0.105,-0.346 0.09,-0.712 0.436,-0.817c2.473,-0.75 6.583,-0.605 9.181,0.937c0.311,0.184 0.413,0.586 0.229,0.897c-0.185,0.311 -0.587,0.413 -0.897,0.229Z" style="fill:#1db954;"/></svg>